<?xml version="1.0" encoding="us-ascii" standalone="no"?><svg xmlns="http://www.w3.org/2000/svg" xmlns:xlink="http://www.w3.org/1999/xlink" contentStyleType="text/css" height="720px" preserveAspectRatio="none" style="width:1006px;height:720px;background:#FFFFFF;" version="1.1" viewBox="0 0 1006 720" width="1006px" zoomAndPan="magnify"><defs/><g><text fill="#000000" font-family="sans-serif" font-size="14" font-weight="bold" lengthAdjust="spacing" textLength="453" x="269.5" y="22.9951">ER Diagram &#8212; AdScale Data Model (Database per Service)</text><!--cluster Campaign Service (PostgreSQL)--><g id="cluster_Campaign Service (PostgreSQL)"><path d="M8.5,43.2969 L260.5,43.2969 A3.75,3.75 0 0 1 263,45.7969 L270,65.5938 L438.5,65.5938 A2.5,2.5 0 0 1 441,68.0938 L441,465.2969 A2.5,2.5 0 0 1 438.5,467.7969 L8.5,467.7969 A2.5,2.5 0 0 1 6,465.2969 L6,45.7969 A2.5,2.5 0 0 1 8.5,43.2969 " fill="none" style="stroke:#000000;stroke-width:1.5;"/><line style="stroke:#000000;stroke-width:1.5;" x1="6" x2="270" y1="65.5938" y2="65.5938"/><text fill="#000000" font-family="sans-serif" font-size="14" font-weight="bold" lengthAdjust="spacing" textLength="251" x="10" y="58.292">Campaign Service (PostgreSQL)</text></g><!--cluster Statistics / Analytics (ClickHouse)--><g id="cluster_Statistics / Analytics (ClickHouse)"><path d="M467.5,287.2969 L730.5,287.2969 A3.75,3.75 0 0 1 733,289.7969 L740,309.5938 L740.5,309.5938 A2.5,2.5 0 0 1 743,312.0938 L743,481.7969 A2.5,2.5 0 0 1 740.5,484.2969 L467.5,484.2969 A2.5,2.5 0 0 1 465,481.7969 L465,289.7969 A2.5,2.5 0 0 1 467.5,287.2969 " fill="none" style="stroke:#000000;stroke-width:1.5;"/><line style="stroke:#000000;stroke-width:1.5;" x1="465" x2="740" y1="309.5938" y2="309.5938"/><text fill="#000000" font-family="sans-serif" font-size="14" font-weight="bold" lengthAdjust="spacing" textLength="262" x="469" y="302.292">Statistics / Analytics (ClickHouse)</text></g><!--cluster Financial Service (PostgreSQL)--><g id="cluster_Financial Service (PostgreSQL)"><path d="M440.5,533.2969 L683.5,533.2969 A3.75,3.75 0 0 1 686,535.7969 L693,555.5938 L693.5,555.5938 A2.5,2.5 0 0 1 696,558.0938 L696,710.7969 A2.5,2.5 0 0 1 693.5,713.2969 L440.5,713.2969 A2.5,2.5 0 0 1 438,710.7969 L438,535.7969 A2.5,2.5 0 0 1 440.5,533.2969 " fill="none" style="stroke:#000000;stroke-width:1.5;"/><line style="stroke:#000000;stroke-width:1.5;" x1="438" x2="693" y1="555.5938" y2="555.5938"/><text fill="#000000" font-family="sans-serif" font-size="14" font-weight="bold" lengthAdjust="spacing" textLength="242" x="442" y="548.292">Financial Service (PostgreSQL)</text></g><!--cluster Bidding Service (Redis)--><g id="cluster_Bidding Service (Redis)"><path d="M769.5,303.7969 L952.5,303.7969 A3.75,3.75 0 0 1 955,306.2969 L962,326.0938 L996.5,326.0938 A2.5,2.5 0 0 1 999,328.5938 L999,465.2969 A2.5,2.5 0 0 1 996.5,467.7969 L769.5,467.7969 A2.5,2.5 0 0 1 767,465.2969 L767,306.2969 A2.5,2.5 0 0 1 769.5,303.7969 " fill="none" style="stroke:#000000;stroke-width:1.5;"/><line style="stroke:#000000;stroke-width:1.5;" x1="767" x2="962" y1="326.0938" y2="326.0938"/><text fill="#000000" font-family="sans-serif" font-size="14" font-weight="bold" lengthAdjust="spacing" textLength="182" x="771" y="318.792">Bidding Service (Redis)</text></g><!--class campaign--><g id="elem_campaign"><rect codeLine="4" fill="#F1F1F1" height="145.7813" id="campaign" rx="2.5" ry="2.5" style="stroke:#181818;stroke-width:0.5;" width="185" x="240.5" y="78.2969"/><ellipse cx="294.25" cy="94.2969" fill="#ADD1B2" rx="11" ry="11" style="stroke:#181818;stroke-width:1.0;"/><path d="M298.3594,100.2969 L290.6406,100.2969 L290.6406,87.9063 L298.3594,87.9063 L298.3594,90.0625 L293.0938,90.0625 L293.0938,92.7344 L297.8594,92.7344 L297.8594,94.8906 L293.0938,94.8906 L293.0938,98.1406 L298.3594,98.1406 L298.3594,100.2969 Z " fill="#000000"/><text fill="#000000" font-family="sans-serif" font-size="14" lengthAdjust="spacing" textLength="69" x="314.75" y="99.1436">Campaign</text><line style="stroke:#181818;stroke-width:0.5;" x1="241.5" x2="424.5" y1="110.2969" y2="110.2969"/><ellipse cx="251.5" cy="123.9453" fill="#000000" rx="3" ry="3" style="stroke:#000000;stroke-width:1.0;"/><text fill="#000000" font-family="sans-serif" font-size="14" lengthAdjust="spacing" textLength="99" x="260.5" y="127.292">id : UUID &#171;PK&#187;</text><line style="stroke:#181818;stroke-width:1.0;" x1="241.5" x2="424.5" y1="134.5938" y2="134.5938"/><text fill="#000000" font-family="sans-serif" font-size="14" lengthAdjust="spacing" textLength="173" x="246.5" y="151.5889">advertiser_id : UUID &#171;FK&#187;</text><text fill="#000000" font-family="sans-serif" font-size="14" lengthAdjust="spacing" textLength="91" x="246.5" y="167.8857">name : string</text><text fill="#000000" font-family="sans-serif" font-size="14" lengthAdjust="spacing" textLength="96" x="246.5" y="184.1826">status : enum</text><text fill="#000000" font-family="sans-serif" font-size="14" lengthAdjust="spacing" textLength="150" x="246.5" y="200.4795">budget_limit : decimal</text><text fill="#000000" font-family="sans-serif" font-size="14" lengthAdjust="spacing" textLength="80" x="246.5" y="216.7764">version : int</text></g><!--class creative--><g id="elem_creative"><rect codeLine="14" fill="#F1F1F1" height="113.1875" id="creative" rx="2.5" ry="2.5" style="stroke:#181818;stroke-width:0.5;" width="184" x="22" y="338.7969"/><ellipse cx="81.75" cy="354.7969" fill="#ADD1B2" rx="11" ry="11" style="stroke:#181818;stroke-width:1.0;"/><path d="M85.8594,360.7969 L78.1406,360.7969 L78.1406,348.4063 L85.8594,348.4063 L85.8594,350.5625 L80.5938,350.5625 L80.5938,353.2344 L85.3594,353.2344 L85.3594,355.3906 L80.5938,355.3906 L80.5938,358.6406 L85.8594,358.6406 L85.8594,360.7969 Z " fill="#000000"/><text fill="#000000" font-family="sans-serif" font-size="14" lengthAdjust="spacing" textLength="56" x="102.25" y="359.6436">Creative</text><line style="stroke:#181818;stroke-width:0.5;" x1="23" x2="205" y1="370.7969" y2="370.7969"/><ellipse cx="33" cy="384.4453" fill="#000000" rx="3" ry="3" style="stroke:#000000;stroke-width:1.0;"/><text fill="#000000" font-family="sans-serif" font-size="14" lengthAdjust="spacing" textLength="99" x="42" y="387.792">id : UUID &#171;PK&#187;</text><line style="stroke:#181818;stroke-width:1.0;" x1="23" x2="205" y1="395.0938" y2="395.0938"/><text fill="#000000" font-family="sans-serif" font-size="14" lengthAdjust="spacing" textLength="172" x="28" y="412.0889">campaign_id : UUID &#171;FK&#187;</text><text fill="#000000" font-family="sans-serif" font-size="14" lengthAdjust="spacing" textLength="83" x="28" y="428.3857">type : enum</text><text fill="#000000" font-family="sans-serif" font-size="14" lengthAdjust="spacing" textLength="130" x="28" y="444.6826">content_url : string</text></g><!--class bid_rule--><g id="elem_bid_rule"><rect codeLine="22" fill="#F1F1F1" height="113.1875" id="bid_rule" rx="2.5" ry="2.5" style="stroke:#181818;stroke-width:0.5;" width="184" x="241" y="338.7969"/><ellipse cx="302.25" cy="354.7969" fill="#ADD1B2" rx="11" ry="11" style="stroke:#181818;stroke-width:1.0;"/><path d="M306.3594,360.7969 L298.6406,360.7969 L298.6406,348.4063 L306.3594,348.4063 L306.3594,350.5625 L301.0938,350.5625 L301.0938,353.2344 L305.8594,353.2344 L305.8594,355.3906 L301.0938,355.3906 L301.0938,358.6406 L306.3594,358.6406 L306.3594,360.7969 Z " fill="#000000"/><text fill="#000000" font-family="sans-serif" font-size="14" lengthAdjust="spacing" textLength="53" x="322.75" y="359.6436">BidRule</text><line style="stroke:#181818;stroke-width:0.5;" x1="242" x2="424" y1="370.7969" y2="370.7969"/><ellipse cx="252" cy="384.4453" fill="#000000" rx="3" ry="3" style="stroke:#000000;stroke-width:1.0;"/><text fill="#000000" font-family="sans-serif" font-size="14" lengthAdjust="spacing" textLength="99" x="261" y="387.792">id : UUID &#171;PK&#187;</text><line style="stroke:#181818;stroke-width:1.0;" x1="242" x2="424" y1="395.0938" y2="395.0938"/><text fill="#000000" font-family="sans-serif" font-size="14" lengthAdjust="spacing" textLength="172" x="247" y="412.0889">campaign_id : UUID &#171;FK&#187;</text><text fill="#000000" font-family="sans-serif" font-size="14" lengthAdjust="spacing" textLength="128" x="247" y="428.3857">base_bid : decimal</text><text fill="#000000" font-family="sans-serif" font-size="14" lengthAdjust="spacing" textLength="122" x="247" y="444.6826">max_bid : decimal</text></g><!--class event--><g id="elem_event"><rect codeLine="32" fill="#F1F1F1" height="145.7813" id="event" rx="2.5" ry="2.5" style="stroke:#181818;stroke-width:0.5;" width="171" x="481.5" y="322.2969"/><ellipse cx="543.25" cy="338.2969" fill="#ADD1B2" rx="11" ry="11" style="stroke:#181818;stroke-width:1.0;"/><path d="M547.3594,344.2969 L539.6406,344.2969 L539.6406,331.9063 L547.3594,331.9063 L547.3594,334.0625 L542.0938,334.0625 L542.0938,336.7344 L546.8594,336.7344 L546.8594,338.8906 L542.0938,338.8906 L542.0938,342.1406 L547.3594,342.1406 L547.3594,344.2969 Z " fill="#000000"/><text fill="#000000" font-family="sans-serif" font-size="14" lengthAdjust="spacing" textLength="39" x="563.75" y="343.1436">Event</text><line style="stroke:#181818;stroke-width:0.5;" x1="482.5" x2="651.5" y1="354.2969" y2="354.2969"/><ellipse cx="492.5" cy="367.9453" fill="#000000" rx="3" ry="3" style="stroke:#000000;stroke-width:1.0;"/><text fill="#000000" font-family="sans-serif" font-size="14" lengthAdjust="spacing" textLength="145" x="501.5" y="371.292">event_id : UUID &#171;PK&#187;</text><line style="stroke:#181818;stroke-width:1.0;" x1="482.5" x2="651.5" y1="378.5938" y2="378.5938"/><text fill="#000000" font-family="sans-serif" font-size="14" lengthAdjust="spacing" textLength="133" x="487.5" y="395.5889">campaign_id : UUID</text><text fill="#000000" font-family="sans-serif" font-size="14" lengthAdjust="spacing" textLength="120" x="487.5" y="411.8857">creative_id : UUID</text><text fill="#000000" font-family="sans-serif" font-size="14" lengthAdjust="spacing" textLength="129" x="487.5" y="428.1826">event_type : enum</text><text fill="#000000" font-family="sans-serif" font-size="14" lengthAdjust="spacing" textLength="159" x="487.5" y="444.4795">timestamp : timestamp</text><text fill="#000000" font-family="sans-serif" font-size="14" lengthAdjust="spacing" textLength="100" x="487.5" y="460.7764">price : decimal</text></g><!--class transaction--><g id="elem_transaction"><rect codeLine="44" fill="#F1F1F1" height="129.4844" id="transaction" rx="2.5" ry="2.5" style="stroke:#181818;stroke-width:0.5;" width="145" x="494.5" y="568.2969"/><ellipse cx="523.9" cy="584.2969" fill="#ADD1B2" rx="11" ry="11" style="stroke:#181818;stroke-width:1.0;"/><path d="M528.0094,590.2969 L520.2906,590.2969 L520.2906,577.9063 L528.0094,577.9063 L528.0094,580.0625 L522.7438,580.0625 L522.7438,582.7344 L527.5094,582.7344 L527.5094,584.8906 L522.7438,584.8906 L522.7438,588.1406 L528.0094,588.1406 L528.0094,590.2969 Z " fill="#000000"/><text fill="#000000" font-family="sans-serif" font-size="14" lengthAdjust="spacing" textLength="81" x="541.1" y="589.1436">Transaction</text><line style="stroke:#181818;stroke-width:0.5;" x1="495.5" x2="638.5" y1="600.2969" y2="600.2969"/><ellipse cx="505.5" cy="613.9453" fill="#000000" rx="3" ry="3" style="stroke:#000000;stroke-width:1.0;"/><text fill="#000000" font-family="sans-serif" font-size="14" lengthAdjust="spacing" textLength="99" x="514.5" y="617.292">id : UUID &#171;PK&#187;</text><line style="stroke:#181818;stroke-width:1.0;" x1="495.5" x2="638.5" y1="624.5938" y2="624.5938"/><text fill="#000000" font-family="sans-serif" font-size="14" lengthAdjust="spacing" textLength="133" x="500.5" y="641.5889">campaign_id : UUID</text><text fill="#000000" font-family="sans-serif" font-size="14" lengthAdjust="spacing" textLength="105" x="500.5" y="657.8857">event_id : UUID</text><text fill="#000000" font-family="sans-serif" font-size="14" lengthAdjust="spacing" textLength="119" x="500.5" y="674.1826">amount : decimal</text><text fill="#000000" font-family="sans-serif" font-size="14" lengthAdjust="spacing" textLength="96" x="500.5" y="690.4795">status : enum</text></g><!--class cached--><g id="elem_cached"><rect codeLine="55" fill="#F1F1F1" height="113.1875" id="cached" rx="2.5" ry="2.5" style="stroke:#181818;stroke-width:0.5;" width="199" x="783.5" y="338.7969"/><ellipse cx="818.75" cy="354.7969" fill="#ADD1B2" rx="11" ry="11" style="stroke:#181818;stroke-width:1.0;"/><path d="M822.8594,360.7969 L815.1406,360.7969 L815.1406,348.4063 L822.8594,348.4063 L822.8594,350.5625 L817.5938,350.5625 L817.5938,353.2344 L822.3594,353.2344 L822.3594,355.3906 L817.5938,355.3906 L817.5938,358.6406 L822.8594,358.6406 L822.8594,360.7969 Z " fill="#000000"/><text fill="#000000" font-family="sans-serif" font-size="14" lengthAdjust="spacing" textLength="122" x="837.25" y="359.6436">CachedCampaign</text><line style="stroke:#181818;stroke-width:0.5;" x1="784.5" x2="981.5" y1="370.7969" y2="370.7969"/><ellipse cx="794.5" cy="384.4453" fill="#000000" rx="3" ry="3" style="stroke:#000000;stroke-width:1.0;"/><text fill="#000000" font-family="sans-serif" font-size="14" lengthAdjust="spacing" textLength="173" x="803.5" y="387.792">campaign_id : UUID &#171;PK&#187;</text><line style="stroke:#181818;stroke-width:1.0;" x1="784.5" x2="981.5" y1="395.0938" y2="395.0938"/><text fill="#000000" font-family="sans-serif" font-size="14" lengthAdjust="spacing" textLength="150" x="789.5" y="412.0889">budget_limit : decimal</text><text fill="#000000" font-family="sans-serif" font-size="14" lengthAdjust="spacing" textLength="145" x="789.5" y="428.3857">targeting_rules : json</text><text fill="#000000" font-family="sans-serif" font-size="14" lengthAdjust="spacing" textLength="135" x="789.5" y="444.6826">source_version : int</text></g><!--link campaign to creative--><g id="link_campaign_creative"><path codeLine="65" d="M262.2222,230.5087 C229.2022,266.9987 207.1975,291.3102 176.5575,325.1702 " fill="none" id="campaign-creative" style="stroke:#181818;stroke-width:1.0;"/><line style="stroke:#181818;stroke-width:1.0;" x1="261.9402" x2="267.872" y1="224.8589" y2="230.2267"/><line style="stroke:#181818;stroke-width:1.0;" x1="259.9273" x2="265.8591" y1="227.0834" y2="232.4511"/><line style="stroke:#181818;stroke-width:1.0;" x1="262.2222" x2="267.59" y1="230.5087" y2="224.5769"/><line style="stroke:#181818;stroke-width:1.0;" x1="169.8478" x2="168.9289" y1="332.585" y2="342.5427"/><line style="stroke:#181818;stroke-width:1.0;" x1="169.8478" x2="160.0311" y1="332.585" y2="334.4911"/><line style="stroke:#181818;stroke-width:1.0;" x1="169.8478" x2="164.48" y1="332.585" y2="338.5169"/><ellipse cx="173.8736" cy="328.1361" fill="none" rx="4" ry="4" style="stroke:#181818;stroke-width:1.0;"/><text fill="#000000" font-family="sans-serif" font-size="13" lengthAdjust="spacing" textLength="23" x="238" y="267.3638">has</text></g><!--link campaign to bid_rule--><g id="link_campaign_bid_rule"><path codeLine="66" d="M333,232.5769 C333,269.0669 333,286.6569 333,320.5169 " fill="none" id="campaign-bid_rule" style="stroke:#181818;stroke-width:1.0;"/><line style="stroke:#181818;stroke-width:1.0;" x1="329" x2="337" y1="228.5769" y2="228.5769"/><line style="stroke:#181818;stroke-width:1.0;" x1="329" x2="337" y1="231.5769" y2="231.5769"/><line style="stroke:#181818;stroke-width:1.0;" x1="333" x2="333" y1="232.5769" y2="224.5769"/><line style="stroke:#181818;stroke-width:1.0;" x1="333" x2="339" y1="330.5169" y2="338.5169"/><line style="stroke:#181818;stroke-width:1.0;" x1="333" x2="327" y1="330.5169" y2="338.5169"/><line style="stroke:#181818;stroke-width:1.0;" x1="333" x2="333" y1="330.5169" y2="338.5169"/><ellipse cx="333" cy="324.5169" fill="none" rx="4" ry="4" style="stroke:#181818;stroke-width:1.0;"/><text fill="#000000" font-family="sans-serif" font-size="13" lengthAdjust="spacing" textLength="23" x="334" y="267.3638">has</text></g><!--link campaign to event--><g id="link_campaign_event"><path codeLine="67" d="M408.4508,230.3282 C438.2108,261.1082 454.7861,278.2484 484.5561,309.0284 " fill="none" id="campaign-event" style="stroke:#181818;stroke-width:1.0;"/><line style="stroke:#181818;stroke-width:1.0;" x1="402.7947" x2="408.5461" y1="230.2329" y2="224.6722"/><line style="stroke:#181818;stroke-width:1.0;" x1="404.88" x2="410.6313" y1="232.3897" y2="226.8289"/><line style="stroke:#181818;stroke-width:1.0;" x1="408.4508" x2="402.89" y1="230.3282" y2="224.5769"/><line style="stroke:#181818;stroke-width:1.0;" x1="491.5083" x2="501.3828" y1="316.2165" y2="317.7956"/><line style="stroke:#181818;stroke-width:1.0;" x1="491.5083" x2="492.7572" y1="316.2165" y2="326.1382"/><line style="stroke:#181818;stroke-width:1.0;" x1="491.5083" x2="497.07" y1="316.2165" y2="321.9669"/><ellipse cx="487.337" cy="311.9037" fill="none" rx="4" ry="4" style="stroke:#181818;stroke-width:1.0;"/><text fill="#000000" font-family="sans-serif" font-size="13" lengthAdjust="spacing" textLength="180" x="443" y="267.3638">generates (&#1087;&#1086; campaign_id)</text></g><!--link event to transaction--><g id="link_event_transaction"><path codeLine="68" d="M567,476.5569 C567,508.3269 567,522.3269 567,553.0569 " fill="none" id="event-transaction" style="stroke:#181818;stroke-width:1.0;"/><line style="stroke:#181818;stroke-width:1.0;" x1="563" x2="571" y1="472.5569" y2="472.5569"/><line style="stroke:#181818;stroke-width:1.0;" x1="563" x2="571" y1="475.5569" y2="475.5569"/><line style="stroke:#181818;stroke-width:1.0;" x1="567" x2="567" y1="476.5569" y2="468.5569"/><line style="stroke:#181818;stroke-width:1.0;" x1="567" x2="567" y1="557.0569" y2="568.0569"/><ellipse cx="567" cy="557.0569" fill="none" rx="4" ry="4" style="stroke:#181818;stroke-width:1.0;"/><line style="stroke:#181818;stroke-width:1.0;" x1="571" x2="563" y1="564.0569" y2="564.0569"/><text fill="#000000" font-family="sans-serif" font-size="13" lengthAdjust="spacing" textLength="124" x="568" y="513.3638">billing (&#1087;&#1086; event_id)</text></g><!--link campaign to cached--><g id="link_campaign_cached"><path codeLine="69" d="M425.58,179.1469 C485.49,197.6669 564.61,224.2969 632,254.2969 C686.93,278.7469 740.5844,308.1615 787.4744,335.6615 " fill="none" id="campaign-to-cached" style="stroke:#181818;stroke-width:1.0;stroke-dasharray:7.0,7.0;"/><polygon fill="#181818" points="792.65,338.6969,786.9102,330.6934,788.337,336.1674,782.8631,337.5942,792.65,338.6969" style="stroke:#181818;stroke-width:1.0;"/><text fill="#000000" font-family="sans-serif" font-size="13" lengthAdjust="spacing" textLength="195" x="668" y="267.3638">&#1084;&#1072;&#1090;&#1077;&#1088;&#1080;&#1072;&#1083;&#1080;&#1079;&#1091;&#1077;&#1090;&#1089;&#1103; &#1095;&#1077;&#1088;&#1077;&#1079; CDC</text></g><!--SRC=[hLJDRjD04BxxAKQ-a21IxbLLgIIjG0MfDFGSJUoHkzHUHxlhYAgjr1yanAaNNe0tg82G2afvXVKhy2ICrqtYE2qgY9Ddlvcrls_c6njXOeBrRUW8Z1GcyElu0wo5tG0Pxg11U96654EZYFke2GQae4jgA09gUju0WpsC2Fms9WCKaPpaeB6LQXCfwhvytlJXm0CWQOJPdvNwW1g2oRsY0k0XY12MOMVdMGTMLhOsLrSTt6gv1uP3KaPeKhrgsSQaJ69236kZX8mSeWsQJ3D6CaiSqi_2Y4ml5eamZ8SKY0HZb-ANQv5AHeKqZ1nvLTQAq8WXbQnl3lTYFP5uEsUpFw0glo2LXh_PorHSbJB7vOa8jxEufD8NOK_nuJzGAURRwxjKjIq9lbb0ZxoZol2xt6MXZGWqF8OrYV6-YnljM0HxJzDCKyq2wqEE77qgeYbtT-hzdO8IlXb83IxVLs-n4GcnCP81WzFOPGQgiExTGZU4H1a8ZEzXyrSAfSR0iAESKZCx_-EiAfBcCKpIJDRTNBV-l1AsKCZEckdOfb3eXKqDTYcixMi1JGNSQgYwaZ-id475AIRYF5omVQrJMV9FCnLGRt4fMSO3i1_jf_pSZkqbs2ixib_jb_mCyfFyB7zlVzXhZauvVyNvXlrkh-rdUvc_iwFyn7wpbtRq2BXg1FbRFepdKx2nsVIc_wN3mrOhFPXj_3BukwZzXOBf7jvLK3gTin59KcXORSF-jDVL7ZPzhonpTmxdFCCt-oAEYw6LzoPEQ5Q-jRIqEXaHrxFyY_oKbHsphWjk0slDp_Xyokqv1oVwc9itXdQdxNk_0G00]--></g></svg>